<?xml version="1.0" encoding="iso-8859-1"?>
<!-- Generator: Adobe Illustrator 19.0.0, SVG Export Plug-In . SVG Version: 6.00 Build 0)  -->
<svg version="1.1" id="Capa_1" xmlns="http://www.w3.org/2000/svg" xmlns:xlink="http://www.w3.org/1999/xlink" x="0px" y="0px"
	 viewBox="0 0 512 512" style="enable-background:new 0 0 512 512;" xml:space="preserve">
<path style="fill:#50B9FF;" d="M265.499,477.499l-30,30C232.8,510.5,228.9,512,225,512s-7.8-1.5-10.499-4.501c-6-5.7-6-15.3,0-21
	L218.7,482H135c-11.7,0-22.2-4.501-30-11.7c-9.3-8.101-15-20.099-15-33.3v-91c0-8.401,6.599-15,15-15s15,6.599,15,15v91
	c0,8.399,6.599,15,15,15h83.699l-4.199-4.501c-6-5.7-6-15.3,0-21c5.7-5.999,15.298-5.999,20.999,0l30,30
	C271.5,462.199,271.5,471.799,265.499,477.499z"/>
<path style="fill:#48A7E6;" d="M265.499,477.499l-30,30C232.8,510.5,228.9,512,225,512s-7.8-1.5-10.499-4.501c-6-5.7-6-15.3,0-21
	L218.7,482H135c-11.7,0-22.2-4.501-30-11.7V331c8.401,0,15,6.599,15,15v91c0,8.399,6.599,15,15,15h83.699l-4.199-4.501
	c-6-5.7-6-15.3,0-21c5.7-5.999,15.298-5.999,20.999,0l30,30C271.5,462.199,271.5,471.799,265.499,477.499z"/>
<path style="fill:#5C5F66;" d="M165,0H45C20.099,0,0,20.099,0,45v271c0,24.899,20.099,45,45,45h120c24.901,0,45-20.101,45-45V45
	C210,20.099,189.901,0,165,0z"/>
<path style="fill:#53565C;" d="M210,45v271c0,24.899-20.099,45-45,45h-60V0h60C189.901,0,210,20.099,210,45z"/>
<path style="fill:#50B9FF;" d="M421,75v91c0,8.399-6.599,15-15,15s-15-6.601-15-15V75c0-8.401-7.599-15-16-15h-83.699l4.199,4.499
	c6,5.7,6,15.3,0,21c-5.7,6-15.298,6-20.999,0l-30-30c-6-5.7-6-15.3,0-21l30-30c5.7-5.999,15.298-5.999,20.999,0c6,5.7,6,15.3,0,21
	L291.301,30H375c11.7,0,23.2,4.499,31,11.7C415.3,49.799,421,61.8,421,75z"/>
<path style="fill:#48A7E6;" d="M421,75v91c0,8.399-6.599,15-15,15V41.7C415.3,49.799,421,61.8,421,75z"/>
<g>
	<path style="fill:#9BA0AC;" d="M150,75c0,8.399-6.599,15-15,15H75c-8.401,0-15-6.601-15-15c0-8.401,6.599-15,15-15h60
		C143.401,60,150,66.599,150,75z"/>
	<path style="fill:#9BA0AC;" d="M150,136c0,8.399-6.599,15-15,15H75c-8.401,0-15-6.601-15-15c0-8.401,6.599-15,15-15h60
		C143.401,121,150,127.599,150,136z"/>
</g>
<circle style="fill:#7BCC29;" cx="135" cy="286" r="15"/>
<g>
	<path style="fill:#8B92A1;" d="M150,136c0,8.399-6.599,15-15,15h-30v-30h30C143.401,121,150,127.599,150,136z"/>
	<path style="fill:#8B92A1;" d="M150,75c0,8.399-6.599,15-15,15h-30V60h30C143.401,60,150,66.599,150,75z"/>
</g>
<path style="fill:#5C5F66;" d="M467,151H345c-24.901,0-45,20.099-45,45v271c0,24.899,20.099,45,45,45h122c24.901,0,45-20.101,45-45
	V196C512,171.099,491.901,151,467,151z"/>
<path style="fill:#53565C;" d="M512,196v271c0,24.899-20.099,45-45,45h-61V151h61C491.901,151,512,171.099,512,196z"/>
<g>
	<path style="fill:#9BA0AC;" d="M451,226c0,8.399-6.599,15-15,15h-61c-8.401,0-15-6.601-15-15c0-8.401,6.599-15,15-15h61
		C444.401,211,451,217.599,451,226z"/>
	<path style="fill:#9BA0AC;" d="M451,286c0,8.399-6.599,15-15,15h-61c-8.401,0-15-6.601-15-15c0-8.401,6.599-15,15-15h61
		C444.401,271,451,277.599,451,286z"/>
</g>
<circle style="fill:#6EB825;" cx="436" cy="437" r="15"/>
<g>
	<path style="fill:#8B92A1;" d="M451,286c0,8.399-6.599,15-15,15h-30v-30h30C444.401,271,451,277.599,451,286z"/>
	<path style="fill:#8B92A1;" d="M451,226c0,8.399-6.599,15-15,15h-30v-30h30C444.401,211,451,217.599,451,226z"/>
</g>
<g>
</g>
<g>
</g>
<g>
</g>
<g>
</g>
<g>
</g>
<g>
</g>
<g>
</g>
<g>
</g>
<g>
</g>
<g>
</g>
<g>
</g>
<g>
</g>
<g>
</g>
<g>
</g>
<g>
</g>
</svg>
