<?xml version="1.0" encoding="UTF-8"?> <!-- Generator: Adobe Illustrator 19.0.0, SVG Export Plug-In . SVG Version: 6.00 Build 0) --> <svg xmlns="http://www.w3.org/2000/svg" xmlns:xlink="http://www.w3.org/1999/xlink" id="Capa_1" x="0px" y="0px" viewBox="0 0 512 512" style="enable-background:new 0 0 512 512;" xml:space="preserve"> <g> <path style="fill:#D1D4D1;" d="M512,450.207v17.655c-0.009,24.373-19.765,44.129-44.138,44.138H44.138 C19.765,511.991,0.009,492.235,0,467.862v-17.655c0.027-2.992,0.323-5.976,0.883-8.916l19.509-99.663L72.651,74.417l7.504-38.488 h0.088C84.164,15.083,102.376-0.013,123.586,0h264.828c21.21-0.013,39.422,15.083,43.343,35.928h0.177l7.593,38.753l52.348,267.299 l19.42,99.31h-0.176C511.677,444.231,511.973,447.215,512,450.207z"></path> <path style="fill:#A5A5A4;" d="M512,450.207v17.655c-0.009,24.373-19.765,44.129-44.138,44.138H44.138 C19.765,511.991,0.009,492.235,0,467.862v-17.655c0.027-2.992,0.323-5.976,0.883-8.916c4.263-20.5,22.317-35.201,43.255-35.222 h423.724c20.938,0.021,38.992,14.722,43.255,35.222C511.677,444.231,511.973,447.215,512,450.207z"></path> <g> <path style="fill:#14A085;" d="M491.873,341.981c-13.191-10.228-29.479-15.646-46.168-15.36H66.119 c-16.5-0.307-32.617,4.983-45.726,15.007L72.651,74.417c9.615-8.278,21.918-12.766,34.604-12.623h297.314 c12.837-0.124,25.273,4.461,34.957,12.888L491.873,341.981z"></path> <circle style="fill:#14A085;" cx="70.621" cy="459.034" r="17.655"></circle> </g> <g> <path style="fill:#5E5F62;" d="M326.621,459.034V512h-17.655v-52.966c0-4.875,3.952-8.828,8.828-8.828 C322.668,450.207,326.621,454.159,326.621,459.034z"></path> <path style="fill:#5E5F62;" d="M361.931,459.034V512h-17.655v-52.966c0-4.875,3.952-8.828,8.828-8.828 S361.931,454.159,361.931,459.034z"></path> <path style="fill:#5E5F62;" d="M397.241,459.034V512h-17.655v-52.966c0-4.875,3.952-8.828,8.828-8.828 S397.241,454.159,397.241,459.034z"></path> <path style="fill:#5E5F62;" d="M432.552,459.034V512h-17.655v-52.966c0-4.875,3.952-8.828,8.828-8.828 S432.552,454.159,432.552,459.034z"></path> </g> <ellipse style="fill:#26B99A;" cx="256" cy="194.207" rx="123.586" ry="97.103"></ellipse> <path style="fill:#E6E7E8;" d="M315.207,232.104l-23.813-23.812c5.375-4.671,8.547-11.38,8.744-18.499 c0-15.2-14.931-27.501-35.31-30.292v-27.088c0-4.875-3.952-8.828-8.828-8.828s-8.828,3.952-8.828,8.828v27.088 c-20.379,2.79-35.31,15.092-35.31,30.292c0,17.323,19.388,30.897,44.138,30.897c6.664,0.006,13.283-1.087,19.591-3.237 l27.134,27.133c2.223,2.264,5.49,3.16,8.556,2.348s5.462-3.207,6.274-6.274C318.367,237.593,317.47,234.327,315.207,232.104 L315.207,232.104z M229.517,189.793c0-6.25,11.328-13.241,26.483-13.241c15.155,0,26.483,6.991,26.483,13.241 c0,3.168-2.927,6.517-7.769,9.058c-0.239,0.087-0.457,0.2-0.69,0.309c-5.639,2.635-11.8,3.959-18.024,3.874 C240.845,203.034,229.517,196.043,229.517,189.793z"></path> </g> <g> </g> <g> </g> <g> </g> <g> </g> <g> </g> <g> </g> <g> </g> <g> </g> <g> </g> <g> </g> <g> </g> <g> </g> <g> </g> <g> </g> <g> </g> </svg> 