<?xml version="1.0" encoding="iso-8859-1"?>
<!-- Generator: Adobe Illustrator 19.0.0, SVG Export Plug-In . SVG Version: 6.00 Build 0)  -->
<svg version="1.1" id="Layer_1" xmlns="http://www.w3.org/2000/svg" xmlns:xlink="http://www.w3.org/1999/xlink" x="0px" y="0px"
	 viewBox="0 0 482.6 482.6" style="enable-background:new 0 0 482.6 482.6;" xml:space="preserve">
<g>
	<path style="fill:#EBF0F3;" d="M124.4,124.1L58.2,422.3L421.4,394V51.9L124.4,124.1z M404.5,366.3L149.7,136.2l254.2-62v292.1
		H404.5z M137.1,148.2l95.2,86.1l-21.7,22.3l12.6,12l22.3-22.9l147,133.1l-300,23.5l8.4-8.4L88.3,382l-3,3L137.1,148.2z"/>
	
		<rect x="260.451" y="190.889" transform="matrix(0.6995 -0.7146 0.7146 0.6995 -59.1604 258.5808)" style="fill:#EBF0F3;" width="34.899" height="17.5"/>
</g>
<rect x="358.35" y="91.238" transform="matrix(0.6993 -0.7149 0.7149 0.6993 41.5388 298.7161)" style="fill:#FFFFFF;" width="34.902" height="17.501"/>
<g>
	
		<rect x="309.354" y="141.109" transform="matrix(0.6995 -0.7146 0.7146 0.6995 -8.8925 278.5697)" style="fill:#EBF0F3;" width="34.899" height="17.5"/>
	
		<rect x="162.618" y="291.492" transform="matrix(0.6993 -0.7149 0.7149 0.6993 -160.4791 219.0185)" style="fill:#EBF0F3;" width="34.902" height="17.501"/>
	
		<rect x="113.672" y="341.291" transform="matrix(0.6995 -0.7146 0.7146 0.6995 -210.7449 198.8832)" style="fill:#EBF0F3;" width="34.899" height="17.5"/>
</g>
<circle style="fill:#FCD462;" cx="131.7" cy="131.5" r="131.3"/>
<path style="fill:#F6C358;" d="M208.2,24.8c17.5,22.3,27.7,50.6,27.7,80.7c0,72.9-59,131.3-131.3,131.3c-28.3,0-54.8-9-76.5-24.7
	c24.1,30.7,61.4,50.6,103.6,50.6c72.9,0,131.3-59,131.3-131.3C263.6,87.4,241.9,48.2,208.2,24.8z"/>
<circle style="fill:#E56353;" cx="413" cy="69.3" r="69.3"/>
<path style="fill:#D15241;" d="M453.3,12.7c9,11.4,14.5,26.5,14.5,42.8c0,37.9-30.7,69.3-69.3,69.3c-15.1,0-28.9-5.2-40.4-13.1
	c12.6,16.3,32.5,26.9,54.2,26.9c37.9,0,69.3-30.7,69.3-69.3C482.2,45.8,470.8,25.4,453.3,12.7z"/>
<circle style="fill:#27A2DB;" cx="413" cy="386.2" r="69.3"/>
<path style="fill:#2D93BA;" d="M452.9,329.5c9,11.4,14.9,26.5,14.9,42.8c0,37.9-30.7,69.3-69.3,69.3c-15.1,0-28.7-4.9-40.1-12.8
	c12.6,16.3,32.3,26.6,54,26.6c37.9,0,69.3-30.7,69.3-69.3C482.2,362.7,470.4,342.2,452.9,329.5z"/>
<circle style="fill:#64798A;" cx="69.6" cy="412.7" r="69.3"/>
<path style="fill:#3A556A;" d="M110,356.7c9,11.4,14.5,26.5,14.5,42.8c0,37.9-30.7,69.3-69.3,69.3c-15.1,0-28.3-5-39.7-12.9
	c12.6,16.3,31.9,26.7,53.6,26.7c37.9,0,69.9-30.6,69.9-69.1C139.5,389.9,127.5,369.3,110,356.7z"/>
<path style="fill:#64798A;" d="M77.5,112.1v72c0,7.1,5.8,12.9,12.9,12.9h83.1c7.2,0,13-5.8,13-13v-71.9H77.5z"/>
<g>
	<path style="fill:#3A556A;" d="M77.5,112.1V185c0,6.6,6,11.4,12,12v-84.9H77.5z"/>
	<path style="fill:#3A556A;" d="M173.8,112.1V197c6.6,0,12.6-5.4,12.6-12.6v-72.3C186.4,112.1,173.8,112.1,173.8,112.1z"/>
</g>
<g>
	<path style="fill:#D15241;" d="M89.5,132v-7.2c-6.6-0.6-12.1-6-12.1-12.6v7.2C76.8,126,82.9,131.4,89.5,132z"/>
	<path style="fill:#D15241;" d="M173.8,124.7v7.2c6.6,0,12.6-5.4,12.6-12.6v-7.2C186.5,119.3,180.5,124.7,173.8,124.7z"/>
</g>
<path style="fill:#E56353;" d="M89.5,124.7v7.2l0,0h84.3v-7.2H89.5C88.9,124.7,89.5,124.7,89.5,124.7z"/>
<g>
	<path style="fill:#D15241;" d="M89.5,197v-7.2c-6.6-0.6-12-6-12-12.6v7.2C77.3,192.3,82.9,196.4,89.5,197z"/>
	<path style="fill:#D15241;" d="M173.8,189.8v7.2c6.6,0,12.6-5.4,12.6-12.6v-7.2C186.5,183.8,180.5,189.8,173.8,189.8z"/>
</g>
<path style="fill:#E56353;" d="M89.5,189.8v7.2h0.6h83.7v-7.2H89.5z"/>
<path style="fill:#2F4859;" d="M173.8,124.7H89.5c-7.2,0-12-5.4-12-12.6l0,0c0-7.2,5.4-12.6,12.6-12.6h83.7
	c7.2,0,12.6,5.4,12.6,12.6l0,0C186.5,119.3,180.5,124.7,173.8,124.7z"/>
<path style="fill:#3A556A;" d="M140.1,152.5c0-4.8-3.6-8.4-8.4-8.4c-4.8,0-8.4,3.6-8.4,8.4c0,3,1.2,5.4,3,6.6l-3,15.1h17.5l-3-15.1
	C138.9,157.3,140.1,154.9,140.1,152.5z"/>
<path style="fill:#64798A;" d="M131.7,39.2c-24.7,0-44.6,20.5-44.6,45.2v28.3h10.2V84.4c0-16.9,12-31.3,27.7-34.3
	c2.4-0.6,4.8-0.6,7.2-0.6s4.8,0,7.2,0.6c15.7,3,27.7,17.5,27.7,34.3v28.3h10.2V84.4C176.8,59.7,156.4,39.2,131.7,39.2z"/>
<g>
</g>
<g>
</g>
<g>
</g>
<g>
</g>
<g>
</g>
<g>
</g>
<g>
</g>
<g>
</g>
<g>
</g>
<g>
</g>
<g>
</g>
<g>
</g>
<g>
</g>
<g>
</g>
<g>
</g>
</svg>
